<svg width="277" height="27" viewBox="0 0 277 27" fill="none" xmlns="http://www.w3.org/2000/svg">
<g filter="url(#filter0_b_1_12)">
<path d="M2.895 10.46C1.47167 9.2 0.76 7.84667 0.76 6.4C0.76 5.04667 1.30833 3.90333 2.405 2.97C3.57167 1.96667 5.08833 1.465 6.955 1.465H24.84C25.5633 1.465 26.345 1.395 27.185 1.255C28.025 1.115 28.62 0.974998 28.97 0.834999V8.045L28.62 8.01V7.765C28.62 5.875 27.92 4.545 26.52 3.775C25.8433 3.425 25.0383 3.23833 24.105 3.215H20.675V23.48C20.6983 24.0867 20.92 24.6 21.34 25.02C21.7833 25.44 22.3083 25.65 22.915 25.65H23.37V26H10.805V25.65H11.26C11.8667 25.65 12.38 25.44 12.8 25.02C13.2433 24.6 13.4767 24.0983 13.5 23.515V3.215H6.955C5.64833 3.215 4.56333 3.53 3.7 4.16C2.69667 4.88333 2.195 5.79333 2.195 6.89C2.195 7.96333 2.55667 9.095 3.28 10.285L2.895 10.46ZM30.755 25.65C31.3617 25.65 31.875 25.44 32.295 25.02C32.7383 24.5767 32.9717 24.0517 32.995 23.445V4.055C32.9717 3.30833 32.6567 2.71333 32.05 2.27C31.6767 1.99 31.245 1.85 30.755 1.85H30.3V1.5H45.805C46.8083 1.5 47.695 1.41833 48.465 1.255C49.2583 1.09167 49.76 0.963332 49.97 0.869998V8.08H49.62V7.8C49.62 5.93333 48.9433 4.62667 47.59 3.88C46.9367 3.50667 46.155 3.30833 45.245 3.285H40.17V13.05H43.985C45.105 13.0267 46.015 12.665 46.715 11.965C47.415 11.2417 47.765 10.32 47.765 9.2V9.06H48.115V18.79H47.765V18.615C47.765 17.5183 47.415 16.62 46.715 15.92C46.015 15.1967 45.1167 14.8233 44.02 14.8H40.17V24.215H44.475C46.1783 24.215 47.6833 23.655 48.99 22.535C50.2967 21.415 51.2183 19.8633 51.755 17.88H52.105L50.775 26H30.3V25.65H30.755ZM79.7205 1.85H79.2305C78.5305 1.85 77.8539 2.04833 77.2005 2.445C76.5705 2.84167 76.0689 3.33167 75.6955 3.915L68.8355 14.73V23.445C68.8355 24.0517 69.0455 24.5767 69.4655 25.02C69.9089 25.44 70.4455 25.65 71.0755 25.65H71.4955V26H58.9655V25.65H59.4205C60.0272 25.65 60.5405 25.44 60.9605 25.02C61.4039 24.6 61.6372 24.0867 61.6605 23.48V14.73L54.9755 3.845C54.3922 2.935 53.5872 2.32833 52.5605 2.025C52.2105 1.90833 51.8605 1.85 51.5105 1.85H51.0205V1.5H64.5305V1.85H64.1105C63.5972 1.85 63.2005 2.08333 62.9205 2.55C62.7572 2.80667 62.6755 3.06333 62.6755 3.32C62.6755 3.55333 62.7455 3.78667 62.8855 4.02L67.6805 12.665L72.6505 4.02C72.7905 3.78667 72.8605 3.55333 72.8605 3.32C72.8605 3.08667 72.7789 2.84167 72.6155 2.585C72.3122 2.095 71.9155 1.85 71.4255 1.85H71.0055V1.5H79.7205V1.85ZM106.095 1.85H105.78C104.567 1.85 103.598 2.48 102.875 3.74L94.72 21.625C93.4833 24.2383 92.8183 25.9767 92.725 26.84H92.41L81.315 3.775C80.5916 2.49166 79.6116 1.85 78.375 1.85H78.095V1.5H91.36V1.85H91.045C90.555 1.85 90.1816 2.01333 89.925 2.34C89.6916 2.64333 89.575 2.935 89.575 3.215C89.575 3.495 89.6216 3.775 89.715 4.055L94.72 16.06L99.935 4.055C100.075 3.75167 100.145 3.47167 100.145 3.215C100.145 2.935 100.017 2.64333 99.76 2.34C99.5033 2.01333 99.1183 1.85 98.605 1.85H98.29V1.5H106.095V1.85ZM126.801 25.65H127.081V26H113.816V25.65H114.131C114.645 25.65 115.03 25.4983 115.286 25.195C115.543 24.8683 115.671 24.5767 115.671 24.32C115.671 24.04 115.613 23.7483 115.496 23.445L114.131 20.19H106.641L105.241 23.445C105.125 23.7483 105.066 23.9933 105.066 24.18C105.066 24.3667 105.101 24.5767 105.171 24.81C105.265 25.02 105.44 25.2183 105.696 25.405C105.976 25.5683 106.268 25.65 106.571 25.65H106.886V26H99.0813V25.65H99.3963C99.933 25.65 100.458 25.4983 100.971 25.195C101.508 24.8683 101.951 24.39 102.301 23.76L110.456 5.875C111.693 3.26167 112.358 1.52333 112.451 0.659999H112.766L123.861 23.725C124.608 25.0083 125.588 25.65 126.801 25.65ZM107.411 18.44H113.396L110.456 11.44L107.411 18.44ZM137.97 3.215V23.48C137.994 24.0867 138.215 24.6 138.635 25.02C139.079 25.44 139.604 25.65 140.21 25.65H140.665V26H128.1V25.65H128.555C129.162 25.65 129.675 25.44 130.095 25.02C130.539 24.6 130.772 24.0983 130.795 23.515V3.215H127.33C125.93 3.23833 124.834 3.65833 124.04 4.475C123.247 5.26833 122.85 6.365 122.85 7.765V8.01L122.5 8.045V0.834999C122.827 0.974998 123.41 1.115 124.25 1.255C125.114 1.395 125.907 1.465 126.63 1.465H142.135C142.859 1.465 143.64 1.395 144.48 1.255C145.32 1.115 145.915 0.974998 146.265 0.834999V8.045L145.915 8.01V7.765C145.915 5.875 145.215 4.545 143.815 3.775C143.139 3.425 142.334 3.23833 141.4 3.215H137.97Z" fill="#3A4836"/>
<path d="M189.604 25.65H190.164V26H177.739V25.685H178.299C178.672 25.685 178.999 25.5333 179.279 25.23C179.582 24.9033 179.711 24.5533 179.664 24.18L178.334 13.96L172.384 22.78C171.987 23.34 171.637 24.0167 171.334 24.81C171.031 25.6033 170.891 26.28 170.914 26.84H170.599L161.499 14.275L160.274 24.18C160.227 24.5533 160.344 24.9033 160.624 25.23C160.927 25.5333 161.266 25.685 161.639 25.685H162.199V26H154.499V25.65H155.059C155.712 25.65 156.272 25.4517 156.739 25.055C157.229 24.6583 157.521 24.1217 157.614 23.445L160.694 1.01H161.009L172.769 17.075L183.549 1.01H183.864L187.049 23.445C187.166 24.1217 187.457 24.6583 187.924 25.055C188.391 25.4517 188.951 25.65 189.604 25.65ZM190.716 25.65C191.323 25.65 191.836 25.44 192.256 25.02C192.699 24.5767 192.933 24.0517 192.956 23.445V4.055C192.933 3.30833 192.618 2.71333 192.011 2.27C191.638 1.99 191.206 1.85 190.716 1.85H190.261V1.5H205.766C206.769 1.5 207.656 1.41833 208.426 1.255C209.219 1.09167 209.721 0.963332 209.931 0.869998V8.08H209.581V7.8C209.581 5.93333 208.904 4.62667 207.551 3.88C206.898 3.50667 206.116 3.30833 205.206 3.285H200.131V13.05H203.946C205.066 13.0267 205.976 12.665 206.676 11.965C207.376 11.2417 207.726 10.32 207.726 9.2V9.06H208.076V18.79H207.726V18.615C207.726 17.5183 207.376 16.62 206.676 15.92C205.976 15.1967 205.078 14.8233 203.981 14.8H200.131V24.215H204.436C206.139 24.215 207.644 23.655 208.951 22.535C210.258 21.415 211.179 19.8633 211.716 17.88H212.066L210.736 26H190.261V25.65H190.716ZM246.786 25.65H247.346V26H234.921V25.685H235.481C235.855 25.685 236.181 25.5333 236.461 25.23C236.765 24.9033 236.893 24.5533 236.846 24.18L235.516 13.96L229.566 22.78C229.17 23.34 228.82 24.0167 228.516 24.81C228.213 25.6033 228.073 26.28 228.096 26.84H227.781L218.681 14.275L217.456 24.18C217.41 24.5533 217.526 24.9033 217.806 25.23C218.11 25.5333 218.448 25.685 218.821 25.685H219.381V26H211.681V25.65H212.241C212.895 25.65 213.455 25.4517 213.921 25.055C214.411 24.6583 214.703 24.1217 214.796 23.445L217.876 1.01H218.191L229.951 17.075L240.731 1.01H241.046L244.231 23.445C244.348 24.1217 244.64 24.6583 245.106 25.055C245.573 25.4517 246.133 25.65 246.786 25.65ZM261.973 1.01C264.983 1.01 267.573 1.51167 269.743 2.515C271.936 3.51833 273.616 4.98833 274.783 6.925C275.949 8.83833 276.533 11.1133 276.533 13.75C276.533 17.74 275.238 20.8667 272.648 23.13C270.058 25.37 266.499 26.49 261.973 26.49C257.446 26.49 253.888 25.37 251.298 23.13C248.731 20.8667 247.448 17.74 247.448 13.75C247.448 9.76 248.731 6.645 251.298 4.405C253.888 2.14167 257.446 1.01 261.973 1.01ZM256.968 21.835C258.181 23.7717 259.849 24.74 261.973 24.74C264.119 24.74 265.788 23.7717 266.978 21.835C268.191 19.8983 268.798 17.2033 268.798 13.75C268.798 10.2967 268.191 7.60167 266.978 5.665C265.788 3.72833 264.119 2.76 261.973 2.76C259.849 2.76 258.181 3.72833 256.968 5.665C255.778 7.60167 255.183 10.2967 255.183 13.75C255.183 17.2033 255.778 19.8983 256.968 21.835Z" fill="#B8C8B2"/>
</g>
<defs>
<filter id="filter0_b_1_12" x="-7.23999" y="-7.34" width="291.773" height="42.18" filterUnits="userSpaceOnUse" color-interpolation-filters="sRGB">
<feFlood flood-opacity="0" result="BackgroundImageFix"/>
<feGaussianBlur in="BackgroundImageFix" stdDeviation="4"/>
<feComposite in2="SourceAlpha" operator="in" result="effect1_backgroundBlur_1_12"/>
<feBlend mode="normal" in="SourceGraphic" in2="effect1_backgroundBlur_1_12" result="shape"/>
</filter>
</defs>
</svg>
